<svg width="21" height="14" viewBox="0 0 21 14" fill="none" xmlns="http://www.w3.org/2000/svg">
<path d="M1 5.99981C0.447715 5.99981 -2.38419e-07 6.44753 0 6.99982C1.78814e-07 7.5521 0.447716 7.99981 1 7.99981L1 5.99981ZM19 6.99981L19.7025 7.71151L20.4236 6.99979L19.7025 6.28808L19 6.99981ZM13.6234 0.288272C13.2304 -0.0996833 12.5972 -0.0955317 12.2093 0.297545C11.8213 0.690621 11.8255 1.32377 12.2185 1.71173L13.6234 0.288272ZM12.2185 12.2883C11.8255 12.6763 11.8213 13.3094 12.2093 13.7025C12.5973 14.0955 13.2304 14.0997 13.6235 13.7117L12.2185 12.2883ZM1 7.99981L19 7.99981L19 5.99981L1 5.99981L1 7.99981ZM12.2185 1.71173L18.2975 7.71154L19.7025 6.28808L13.6234 0.288272L12.2185 1.71173ZM18.2975 6.2881L12.2185 12.2883L13.6235 13.7117L19.7025 7.71151L18.2975 6.2881Z" fill="transparent"/>
</svg>
