<svg width="69" height="69" viewBox="0 0 69 69" fill="none" xmlns="http://www.w3.org/2000/svg">
<path d="M62.5946 66H6.40541C4.52465 66 3 64.4754 3 62.5946V44.7162V23.4324V6.40541C3 4.52465 4.52465 3 6.40541 3H62.5946C64.4754 3 66 4.52465 66 6.4054V23.4324V44.7162V62.5946C66 64.4754 64.4753 66 62.5946 66Z" fill="#97E11D" stroke="#97E11D" stroke-width="4.66667"/>
<path d="M3 42.1622H18.6165C19.5196 42.1622 20.3858 41.8034 21.0244 41.1647L26.3631 35.8261C27.0738 35.1154 28.2424 35.1718 28.8814 35.9477L33.6486 41.7365L37.9374 46.9442C38.722 47.897 40.228 47.7245 40.7768 46.619L52.4486 23.1106C52.7864 22.4303 53.4804 22 54.24 22H66" stroke="#F6F6F6" stroke-width="4.66667"/>
<path d="M62.5946 66H6.40541C4.52465 66 3 64.4754 3 62.5946V44.7162V23.4324V6.40541C3 4.52465 4.52465 3 6.40541 3H62.5946C64.4754 3 66 4.52465 66 6.4054V23.4324V44.7162V62.5946C66 64.4754 64.4753 66 62.5946 66Z" stroke="#97E11D" stroke-width="4.66667"/>
</svg>
