<svg width="61" height="72" viewBox="0 0 61 72" fill="none" xmlns="http://www.w3.org/2000/svg">
<path d="M54.3333 23.6707V64.3333C54.3333 66.9107 52.244 69 49.6667 69H8.37643C5.82123 69 3.74118 66.9451 3.71011 64.3901L3.05744 10.7234C3.02583 8.12409 5.12425 6 7.72376 6H35.9453L54.3333 23.6707Z" fill="#97E11D"/>
<path d="M35.9453 6V19.0041C35.9453 21.5814 38.0346 23.6707 40.6119 23.6707H54.3333M35.9453 6H7.72376C5.12425 6 3.02583 8.12409 3.05744 10.7234L3.71011 64.3901C3.74118 66.9451 5.82123 69 8.37643 69H49.6667C52.244 69 54.3333 66.9107 54.3333 64.3333V23.6707M35.9453 6L54.3333 23.6707" stroke="#97E11D" stroke-width="4.64322" stroke-linecap="round"/>
<path d="M35.9453 20.6707V6L54.3334 23.6707H38.9453C37.2885 23.6707 35.9453 22.3276 35.9453 20.6707Z" fill="#97E11D" stroke="#F6F6F6" stroke-width="4.64322" stroke-linecap="round"/>
<path d="M15.2578 27.5122H23.6857M15.2578 40.5732H42.8399M15.2578 53.6342H42.8399" stroke="#F6F6F6" stroke-width="4.64322" stroke-linecap="round"/>
</svg>
