<svg width="70" height="79" viewBox="0 0 70 79" fill="none" xmlns="http://www.w3.org/2000/svg">
<path d="M59.7267 6.38666V66.5H42.7933H27.5533H10.62V6.38667C10.62 4.51626 12.1363 3 14.0067 3H56.34C58.2104 3 59.7267 4.51626 59.7267 6.38666Z" fill="#97E11D"/>
<path d="M3 66.5H10.62M67.3467 66.5H59.7267M59.7267 66.5V6.38666C59.7267 4.51626 58.2104 3 56.34 3H14.0067C12.1363 3 10.62 4.51626 10.62 6.38667V66.5M59.7267 66.5H42.7933H27.5533H10.62" stroke="#97E11D" stroke-width="4.62" stroke-linecap="round"/>
<path d="M27.5536 76.5002V47.8735C27.5536 46.0031 29.0699 44.4869 30.9403 44.4869H39.407C41.2774 44.4869 42.7936 46.0031 42.7936 47.8735V76.5002M23.3203 30.9402H29.247M41.1003 30.9402H47.027M47.027 16.5469H41.1003M29.247 16.5469H23.3203" stroke="#F6F6F6" stroke-width="4.62" stroke-linecap="round"/>
</svg>
