<svg width="76" height="69" viewBox="0 0 76 69" fill="none" xmlns="http://www.w3.org/2000/svg">
<path d="M3 27.8684V6.31579C3 4.48453 4.48453 3 6.31579 3H69.3158C71.147 3 72.6316 4.48453 72.6316 6.31579V27.8684C72.6316 29.6997 71.147 31.1842 69.3158 31.1842H58.5395V51.0789V62.6842C58.5395 64.5155 57.0549 66 55.2237 66H45.2763H30.3553H20.4079C18.5766 66 17.0921 64.5155 17.0921 62.6842V51.0789V31.1842H6.31579C4.48453 31.1842 3 29.6997 3 27.8684Z" fill="#97E11D"/>
<path d="M17.0921 31.1842H6.31579C4.48453 31.1842 3 29.6997 3 27.8684V6.31579C3 4.48453 4.48453 3 6.31579 3H69.3158C71.147 3 72.6316 4.48453 72.6316 6.31579V27.8684C72.6316 29.6997 71.147 31.1842 69.3158 31.1842H58.5395M17.0921 31.1842V51.0789M17.0921 31.1842V24.1382V20.4079C17.0921 18.5766 18.5766 17.0921 20.4079 17.0921H55.2237C57.0549 17.0921 58.5395 18.5766 58.5395 20.4079V31.1842M58.5395 31.1842V51.0789M17.0921 51.0789V62.6842C17.0921 64.5155 18.5766 66 20.4079 66H30.3553M17.0921 51.0789V51.0789C24.4171 51.0789 30.3553 57.0171 30.3553 64.3421V66M30.3553 66H45.2763M58.5395 51.0789V62.6842C58.5395 64.5155 57.0549 66 55.2237 66H45.2763M58.5395 51.0789V51.0789C51.2144 51.0789 45.2763 57.0171 45.2763 64.3421V66" stroke="#97E11D" stroke-width="4.88372"/>
<path d="M12.0918 35.1844V28.1383V14.4081C12.0918 12.5768 13.5763 11.0923 15.4076 11.0923H60.2234C62.0546 11.0923 63.5392 12.5768 63.5392 14.4081V35.1844M17.0918 51.0791V51.0791C24.4168 51.0791 30.355 57.0172 30.355 64.3423V66.0002M58.5392 51.0791V51.0791C51.2141 51.0791 45.276 57.0172 45.276 64.3423V66.0002" stroke="#F6F6F6" stroke-width="4.88372"/>
<circle cx="37.8149" cy="34.4999" r="5.84761" stroke="#F6F6F6" stroke-width="4.88372"/>
</svg>
