<svg width="52" height="66" viewBox="0 0 52 66" fill="none" xmlns="http://www.w3.org/2000/svg">
<path d="M3 62.7271H49" stroke="#97E11D" stroke-width="4.62466" stroke-linecap="round"/>
<path d="M44.308 20.9091C44.308 23.5427 43.2379 26.5438 41.4005 29.6968C39.5801 32.8205 37.1195 35.902 34.6046 38.6482C32.0972 41.3862 29.582 43.7411 27.6901 45.4135C27.0284 45.9985 26.4448 46.4983 25.9669 46.8999C25.4959 46.5202 24.9238 46.0496 24.2767 45.4985C22.3897 43.8918 19.8811 41.6164 17.3805 38.9345C14.8728 36.2451 12.4197 33.1962 10.6044 30.0458C8.7782 26.8765 7.69124 23.766 7.69124 20.9091C7.69124 10.608 15.9183 2.31233 25.9996 2.31233C36.0809 2.31233 44.308 10.608 44.308 20.9091Z" fill="#97E11D" stroke="#97E11D" stroke-width="4.62466" stroke-linecap="round"/>
<path d="M30.0316 20.9092C30.0316 23.2156 28.196 25.0304 25.9991 25.0304C23.8022 25.0304 21.9666 23.2156 21.9666 20.9092C21.9666 18.6027 23.8022 16.7879 25.9991 16.7879C28.196 16.7879 30.0316 18.6027 30.0316 20.9092Z" fill="#F6F6F6" stroke="#F6F6F6" stroke-width="4.62466" stroke-linecap="round"/>
</svg>
