<svg width="69" height="70" viewBox="0 0 69 70" fill="none" xmlns="http://www.w3.org/2000/svg">
<path d="M14.18 10.74H6.44C4.54014 10.74 3 12.2801 3 14.18V64.06C3 65.9599 4.54014 67.5 6.44 67.5H63.2C65.0999 67.5 66.64 65.9599 66.64 64.06V14.18C66.64 12.2801 65.0999 10.74 63.2 10.74H55.46C53.5601 10.74 52.02 9.19986 52.02 7.3V6.44C52.02 4.54014 50.4799 3 48.58 3H21.06C19.1601 3 17.62 4.54014 17.62 6.44V7.3C17.62 9.19986 16.0799 10.74 14.18 10.74Z" fill="#97E11D"/>
<path d="M6.44 13.05H14.18V8.43H6.44V13.05ZM19.93 7.3V6.44H15.31V7.3H19.93ZM21.06 5.31H48.58V0.69H21.06V5.31ZM49.71 6.44V7.3H54.33V6.44H49.71ZM55.46 13.05H63.2V8.43H55.46V13.05ZM64.33 14.18V64.06H68.95V14.18H64.33ZM63.2 65.19H6.44V69.81H63.2V65.19ZM5.31 64.06V14.18H0.69V64.06H5.31ZM6.44 65.19C5.81592 65.19 5.31 64.6841 5.31 64.06H0.69C0.69 67.2356 3.26436 69.81 6.44 69.81V65.19ZM64.33 64.06C64.33 64.6841 63.8241 65.19 63.2 65.19V69.81C66.3756 69.81 68.95 67.2356 68.95 64.06H64.33ZM63.2 13.05C63.8241 13.05 64.33 13.5559 64.33 14.18H68.95C68.95 11.0044 66.3756 8.43 63.2 8.43V13.05ZM49.71 7.3C49.71 10.4756 52.2844 13.05 55.46 13.05V8.43C54.8359 8.43 54.33 7.92408 54.33 7.3H49.71ZM48.58 5.31C49.2041 5.31 49.71 5.81592 49.71 6.44H54.33C54.33 3.26436 51.7556 0.69 48.58 0.69V5.31ZM19.93 6.44C19.93 5.81592 20.4359 5.31 21.06 5.31V0.69C17.8844 0.69 15.31 3.26436 15.31 6.44H19.93ZM14.18 13.05C17.3556 13.05 19.93 10.4756 19.93 7.3H15.31C15.31 7.92408 14.8041 8.43 14.18 8.43V13.05ZM6.44 8.43C3.26437 8.43 0.69 11.0044 0.69 14.18H5.31C5.31 13.5559 5.81591 13.05 6.44 13.05V8.43Z" fill="#97E11D"/>
<path d="M14.6444 6.14113C14.1701 4.95682 12.8255 4.38126 11.6411 4.8556C10.4568 5.32994 9.88126 6.67455 10.3556 7.85887L14.6444 6.14113ZM59.1213 7.91451C59.6263 6.74297 59.0861 5.38381 57.9145 4.87874C56.743 4.37366 55.3838 4.91394 54.8787 6.08549L59.1213 7.91451ZM39.4662 19.5131C40.0368 18.372 39.5743 16.9844 38.4332 16.4139C37.2921 15.8433 35.9045 16.3058 35.334 17.4469L39.4662 19.5131ZM47.756 28.4419L49.8773 29.3564L47.756 28.4419ZM21.0546 28.359L18.9102 29.2179L21.0546 28.359ZM10.3556 7.85887L18.9102 29.2179L23.199 27.5001L14.6444 6.14113L10.3556 7.85887ZM49.8773 29.3564L59.1213 7.91451L54.8787 6.08549L45.6348 27.5274L49.8773 29.3564ZM24.248 32.83H31.3801V28.21H24.248V32.83ZM31.3801 32.83H44.5971V28.21H31.3801V32.83ZM33.4462 31.5531L39.4662 19.5131L35.334 17.4469L29.314 29.4869L33.4462 31.5531ZM45.6348 27.5274C45.4562 27.9416 45.0482 28.21 44.5971 28.21V32.83C46.8928 32.83 48.9685 31.4645 49.8773 29.3564L45.6348 27.5274ZM18.9102 29.2179C19.784 31.3996 21.8977 32.83 24.248 32.83V28.21C23.7861 28.21 23.3707 27.9289 23.199 27.5001L18.9102 29.2179Z" fill="#F6F6F6"/>
<path d="M26.2207 51.4302C24.9449 51.4302 23.9107 52.4645 23.9107 53.7402C23.9107 55.016 24.9449 56.0502 26.2207 56.0502V51.4302ZM43.4207 56.0502C44.6965 56.0502 45.7307 55.016 45.7307 53.7402C45.7307 52.4645 44.6965 51.4302 43.4207 51.4302V56.0502ZM26.2207 56.0502H43.4207V51.4302H26.2207V56.0502Z" fill="#F6F6F6"/>
</svg>
