<svg width="63" height="63" viewBox="0 0 63 63" fill="none" xmlns="http://www.w3.org/2000/svg">
<mask id="path-1-inside-1" fill="white">
<path d="M63 31.5C63 48.897 48.897 63 31.5 63C14.103 63 0 48.897 0 31.5C0 14.103 14.103 0 31.5 0C48.897 0 63 14.103 63 31.5Z"/>
</mask>
<path d="M63 31.5C63 48.897 48.897 63 31.5 63C14.103 63 0 48.897 0 31.5C0 14.103 14.103 0 31.5 0C48.897 0 63 14.103 63 31.5Z" fill="#97E11D"/>
<path d="M58.38 31.5C58.38 46.3454 46.3454 58.38 31.5 58.38V67.62C51.4485 67.62 67.62 51.4485 67.62 31.5H58.38ZM31.5 58.38C16.6546 58.38 4.62 46.3454 4.62 31.5H-4.62C-4.62 51.4485 11.5515 67.62 31.5 67.62V58.38ZM4.62 31.5C4.62 16.6546 16.6546 4.62 31.5 4.62V-4.62C11.5515 -4.62 -4.62 11.5515 -4.62 31.5H4.62ZM31.5 4.62C46.3454 4.62 58.38 16.6546 58.38 31.5H67.62C67.62 11.5515 51.4485 -4.62 31.5 -4.62V4.62Z" fill="#97E11D" mask="url(#path-1-inside-1)"/>
<path d="M33.8104 14.1748C33.8104 12.899 32.7762 11.8648 31.5004 11.8648C30.2246 11.8648 29.1904 12.899 29.1904 14.1748H33.8104ZM30.771 31.964L29.5308 30.0151L29.5308 30.0151L30.771 31.964ZM21.5977 35.0634C20.5214 35.7484 20.2041 37.1762 20.889 38.2525C21.574 39.3288 23.0017 39.6461 24.0781 38.9612L21.5977 35.0634ZM29.1904 14.1748V30.6352H33.8104V14.1748H29.1904ZM29.5308 30.0151L21.5977 35.0634L24.0781 38.9612L32.0112 33.9128L29.5308 30.0151ZM29.1904 30.6352C29.1904 30.3839 29.3188 30.15 29.5308 30.0151L32.0111 33.9128C33.1318 33.1997 33.8104 31.9635 33.8104 30.6352H29.1904Z" fill="#F6F6F6"/>
</svg>
