<svg width="14" height="21" viewBox="0 0 14 21" fill="none" xmlns="http://www.w3.org/2000/svg">
<path d="M8.00019 0.999999C8.00019 0.447715 7.55247 -4.76538e-07 7.00018 -2.6226e-07C6.4479 -1.07587e-07 6.00019 0.447715 6.00019 1L8.00019 0.999999ZM7.00019 19L6.28849 19.7025L7.00021 20.4236L7.71192 19.7025L7.00019 19ZM13.7117 13.6234C14.0997 13.2304 14.0955 12.5972 13.7025 12.2093C13.3094 11.8213 12.6762 11.8255 12.2883 12.2185L13.7117 13.6234ZM1.7117 12.2185C1.32374 11.8255 0.690586 11.8213 0.297521 12.2093C-0.0955425 12.5973 -0.0996738 13.2304 0.288293 13.6235L1.7117 12.2185ZM6.00019 1L6.00019 19L8.00019 19L8.00019 0.999999L6.00019 1ZM12.2883 12.2185L6.28846 18.2975L7.71192 19.7025L13.7117 13.6234L12.2883 12.2185ZM7.7119 18.2975L1.7117 12.2185L0.288293 13.6235L6.28849 19.7025L7.7119 18.2975Z" fill="white"/>
</svg>
