<svg width="22" height="15" viewBox="0 0 22 15" fill="none" xmlns="http://www.w3.org/2000/svg">
<path d="M1 6.9998C0.723857 6.9998 0.5 7.22366 0.5 7.4998C0.5 7.77594 0.723858 7.9998 1 7.9998L1 6.9998ZM21 7.49979L21.3467 7.86006L21.7211 7.49978L21.3467 7.13951L21 7.49979ZM14.5922 0.63972C14.3933 0.448245 14.0767 0.454327 13.8853 0.653304C13.6938 0.852281 13.6999 1.1688 13.8988 1.36028L14.5922 0.63972ZM13.8988 13.6397C13.6999 13.8312 13.6938 14.1477 13.8853 14.3467C14.0768 14.5457 14.3933 14.5518 14.5923 14.3603L13.8988 13.6397ZM1 7.9998L21 7.99979V6.99979L1 6.9998L1 7.9998ZM13.8988 1.36028L20.6533 7.86007L21.3467 7.13951L14.5922 0.63972L13.8988 1.36028ZM20.6533 7.13952L13.8988 13.6397L14.5923 14.3603L21.3467 7.86006L20.6533 7.13952Z" fill="#F9F9F9"/>
</svg>
