<svg width="24" height="24" viewBox="0 0 24 24" fill="none" xmlns="http://www.w3.org/2000/svg">
<circle cx="12" cy="12" r="12" fill="white"/>
<mask id="mask0" mask-type="alpha" maskUnits="userSpaceOnUse" x="1" y="1" width="22" height="22">
<circle cx="12" cy="12" r="11" fill="#C4C4C4"/>
</mask>
<g mask="url(#mask0)">
<rect x="-10" y="4.38477" width="44" height="1.69231" fill="#E5394B"/>
<rect x="-10" y="1" width="44" height="1.69231" fill="#E5394B"/>
<rect x="-10" y="7.76953" width="44" height="1.69231" fill="#E5394B"/>
<rect x="-10" y="11.1543" width="44" height="1.69231" fill="#E5394B"/>
<rect x="-10" y="14.5381" width="44" height="1.69231" fill="#E5394B"/>
<rect x="-10" y="17.9229" width="44" height="1.69231" fill="#E5394B"/>
<rect x="-10" y="21.3076" width="44" height="1.69231" fill="#E5394B"/>
<rect x="-10" y="1" width="22" height="11.8462" fill="#14599F"/>
<path d="M0.998498 1L1.18847 1.58468H1.80324L1.30588 1.94603L1.49585 2.53071L0.998498 2.16936L0.501141 2.53071L0.691114 1.94603L0.193757 1.58468H0.808524L0.998498 1Z" fill="white"/>
<path d="M0.998498 4.38477L1.18847 4.96944H1.80324L1.30588 5.33079L1.49585 5.91547L0.998498 5.55412L0.501141 5.91547L0.691114 5.33079L0.193757 4.96944H0.808524L0.998498 4.38477Z" fill="white"/>
<path d="M0.998498 7.76953L1.18847 8.35421H1.80324L1.30588 8.71556L1.49585 9.30024L0.998498 8.93889L0.501141 9.30024L0.691114 8.71556L0.193757 8.35421H0.808524L0.998498 7.76953Z" fill="white"/>
<path d="M0.998498 11.1543L1.18847 11.739H1.80324L1.30588 12.1003L1.49585 12.685L0.998498 12.3237L0.501141 12.685L0.691114 12.1003L0.193757 11.739H0.808524L0.998498 11.1543Z" fill="white"/>
<path d="M4.38522 1L4.57519 1.58468H5.18996L4.6926 1.94603L4.88257 2.53071L4.38522 2.16936L3.88786 2.53071L4.07783 1.94603L3.58048 1.58468H4.19524L4.38522 1Z" fill="white"/>
<path d="M4.38522 4.38477L4.57519 4.96944H5.18996L4.6926 5.33079L4.88257 5.91547L4.38522 5.55412L3.88786 5.91547L4.07783 5.33079L3.58048 4.96944H4.19524L4.38522 4.38477Z" fill="white"/>
<path d="M4.38522 7.76953L4.57519 8.35421H5.18996L4.6926 8.71556L4.88257 9.30024L4.38522 8.93889L3.88786 9.30024L4.07783 8.71556L3.58048 8.35421H4.19524L4.38522 7.76953Z" fill="white"/>
<path d="M4.38522 11.1543L4.57519 11.739H5.18996L4.6926 12.1003L4.88257 12.685L4.38522 12.3237L3.88786 12.685L4.07783 12.1003L3.58048 11.739H4.19524L4.38522 11.1543Z" fill="white"/>
<path d="M2.69381 9.46191L2.88378 10.0466H3.49855L3.00119 10.4079L3.19117 10.9926L2.69381 10.6313L2.19645 10.9926L2.38643 10.4079L1.88907 10.0466H2.50384L2.69381 9.46191Z" fill="white"/>
<path d="M2.69381 6.07715L2.88378 6.66183H3.49855L3.00119 7.02318L3.19117 7.60786L2.69381 7.2465L2.19645 7.60786L2.38643 7.02318L1.88907 6.66183H2.50384L2.69381 6.07715Z" fill="white"/>
<path d="M2.69381 2.69238L2.88378 3.27706H3.49855L3.00119 3.63841L3.19117 4.22309L2.69381 3.86174L2.19645 4.22309L2.38643 3.63841L1.88907 3.27706H2.50384L2.69381 2.69238Z" fill="white"/>
<path d="M7.76803 1L7.958 1.58468H8.57277L8.07541 1.94603L8.26539 2.53071L7.76803 2.16936L7.27067 2.53071L7.46065 1.94603L6.96329 1.58468H7.57806L7.76803 1Z" fill="white"/>
<path d="M7.76803 4.38477L7.958 4.96944H8.57277L8.07541 5.33079L8.26539 5.91547L7.76803 5.55412L7.27067 5.91547L7.46065 5.33079L6.96329 4.96944H7.57806L7.76803 4.38477Z" fill="white"/>
<path d="M7.76803 7.76953L7.958 8.35421H8.57277L8.07541 8.71556L8.26539 9.30024L7.76803 8.93889L7.27067 9.30024L7.46065 8.71556L6.96329 8.35421H7.57806L7.76803 7.76953Z" fill="white"/>
<path d="M7.76803 11.1543L7.958 11.739H8.57277L8.07541 12.1003L8.26539 12.685L7.76803 12.3237L7.27067 12.685L7.46065 12.1003L6.96329 11.739H7.57806L7.76803 11.1543Z" fill="white"/>
<path d="M6.07662 9.46191L6.2666 10.0466H6.88136L6.38401 10.4079L6.57398 10.9926L6.07662 10.6313L5.57927 10.9926L5.76924 10.4079L5.27188 10.0466H5.88665L6.07662 9.46191Z" fill="white"/>
<path d="M6.07662 6.07715L6.2666 6.66183H6.88136L6.38401 7.02318L6.57398 7.60786L6.07662 7.2465L5.57927 7.60786L5.76924 7.02318L5.27188 6.66183H5.88665L6.07662 6.07715Z" fill="white"/>
<path d="M6.07662 2.69238L6.2666 3.27706H6.88136L6.38401 3.63841L6.57398 4.22309L6.07662 3.86174L5.57927 4.22309L5.76924 3.63841L5.27188 3.27706H5.88665L6.07662 2.69238Z" fill="white"/>
<path d="M11.1547 1L11.3447 1.58468H11.9595L11.4621 1.94603L11.6521 2.53071L11.1547 2.16936L10.6574 2.53071L10.8474 1.94603L10.35 1.58468H10.9648L11.1547 1Z" fill="white"/>
<path d="M11.1547 4.38477L11.3447 4.96944H11.9595L11.4621 5.33079L11.6521 5.91547L11.1547 5.55412L10.6574 5.91547L10.8474 5.33079L10.35 4.96944H10.9648L11.1547 4.38477Z" fill="white"/>
<path d="M11.1547 7.76953L11.3447 8.35421H11.9595L11.4621 8.71556L11.6521 9.30024L11.1547 8.93889L10.6574 9.30024L10.8474 8.71556L10.35 8.35421H10.9648L11.1547 7.76953Z" fill="white"/>
<path d="M11.1547 11.1543L11.3447 11.739H11.9595L11.4621 12.1003L11.6521 12.685L11.1547 12.3237L10.6574 12.685L10.8474 12.1003L10.35 11.739H10.9648L11.1547 11.1543Z" fill="white"/>
<path d="M9.46334 9.46191L9.65331 10.0466H10.2681L9.77072 10.4079L9.9607 10.9926L9.46334 10.6313L8.96598 10.9926L9.15596 10.4079L8.6586 10.0466H9.27337L9.46334 9.46191Z" fill="white"/>
<path d="M9.46334 6.07715L9.65331 6.66183H10.2681L9.77072 7.02318L9.9607 7.60786L9.46334 7.2465L8.96598 7.60786L9.15596 7.02318L8.6586 6.66183H9.27337L9.46334 6.07715Z" fill="white"/>
<path d="M9.46334 2.69238L9.65331 3.27706H10.2681L9.77072 3.63841L9.9607 4.22309L9.46334 3.86174L8.96598 4.22309L9.15596 3.63841L8.6586 3.27706H9.27337L9.46334 2.69238Z" fill="white"/>
</g>
</svg>
