<svg width="60" height="60" viewBox="0 0 60 60" fill="none" xmlns="http://www.w3.org/2000/svg">
<rect width="60" height="60" rx="14" fill="#97E11D"/>
<path d="M26.7647 32.6798L25.1955 34.433L26.7647 32.6798ZM46.0771 16.6622C46.9951 15.7425 46.9937 14.2527 46.074 13.3347C45.1543 12.4167 43.6645 12.418 42.7464 13.3378L46.0771 16.6622ZM40.8889 18.5294L39.2236 16.8672V16.8672L40.8889 18.5294ZM42.7464 23.7211C43.6645 24.6408 45.1543 24.6422 46.074 23.7241C46.9937 22.8061 46.9951 21.3163 46.0771 20.3966L42.7464 23.7211ZM37.4496 27.8359C38.366 28.7572 39.8558 28.7611 40.7771 27.8446C41.6984 26.9281 41.7022 25.4383 40.7857 24.517L37.4496 27.8359ZM26.7647 37.9412C26.7647 40.5402 24.6578 42.6471 22.0588 42.6471V47.3529C27.2568 47.3529 31.4706 43.1392 31.4706 37.9412H26.7647ZM22.0588 42.6471C19.4598 42.6471 17.3529 40.5402 17.3529 37.9412H12.6471C12.6471 43.1392 16.8608 47.3529 22.0588 47.3529V42.6471ZM17.3529 37.9412C17.3529 35.3422 19.4598 33.2353 22.0588 33.2353V28.5294C16.8608 28.5294 12.6471 32.7432 12.6471 37.9412H17.3529ZM22.0588 33.2353C23.2656 33.2353 24.3614 33.6864 25.1955 34.433L28.3339 30.9265C26.6704 29.4376 24.4678 28.5294 22.0588 28.5294V33.2353ZM25.1955 34.433C26.162 35.2981 26.7647 36.5477 26.7647 37.9412H31.4706C31.4706 35.1535 30.2556 32.6465 28.3339 30.9265L25.1955 34.433ZM42.5542 20.1917L46.0771 16.6622L42.7464 13.3378L39.2236 16.8672L42.5542 20.1917ZM39.2236 20.1917L42.7464 23.7211L46.0771 20.3966L42.5542 16.8672L39.2236 20.1917ZM28.43 34.342L37.857 24.8975L34.5264 21.5731L25.0994 31.0175L28.43 34.342ZM37.857 24.8975L42.5542 20.1917L39.2236 16.8672L34.5264 21.5731L37.857 24.8975ZM34.5236 24.8948L37.4496 27.8359L40.7857 24.517L37.8598 21.5758L34.5236 24.8948Z" fill="#F9F9F9"/>
</svg>
