<svg width="60" height="60" viewBox="0 0 60 60" fill="none" xmlns="http://www.w3.org/2000/svg">
<rect width="60" height="60" rx="14" fill="#97E11D"/>
<path d="M18 39.7647V22.0353C18 20.8008 19.0008 19.8 20.2353 19.8H22.4799C23.9749 19.8 24.9793 18.2669 24.3824 16.8963L24.2818 16.6655C24.2343 16.5563 24.2097 16.4386 24.2097 16.3195V16.2682C24.2097 14.0261 25.6661 12.044 27.8057 11.374C28.5855 11.1298 29.419 11.1143 30.2074 11.3293L30.7844 11.4867C32.9781 12.0849 34.5 14.0774 34.5 16.3513C34.5 16.4497 34.4827 16.5473 34.449 16.6397L34.3672 16.8634C33.846 18.2898 34.902 19.8 36.4206 19.8H37.7916C39.0261 19.8 40.0269 20.8008 40.0269 22.0353V24.9686C40.0269 25.6544 40.7194 26.1235 41.3562 25.8692C41.4706 25.8235 41.5927 25.8 41.7159 25.8H42.0328C43.9128 25.8 45.6576 26.7772 46.6398 28.3802C47.4813 29.7535 47.5252 31.4718 46.7548 32.8863L46.6606 33.0592C45.6733 34.8719 43.7742 36 41.7101 36C41.5907 36 41.4719 35.977 41.361 35.9328C40.7241 35.6784 40.0269 36.1456 40.0269 36.8314V39.7647C40.0269 40.9992 39.0261 42 37.7916 42H20.2353C19.0008 42 18 40.9992 18 39.7647Z" fill="#F9F9F9" stroke="#F9F9F9" stroke-width="1.11765"/>
</svg>
