<svg width="60" height="60" viewBox="0 0 60 60" fill="none" xmlns="http://www.w3.org/2000/svg">
<rect width="60" height="60" rx="14" fill="#97E11D"/>
<path d="M18 42.7895V17.5263C18 16.1311 19.1311 15 20.5263 15H30.6316C31.3292 15 31.8947 15.5655 31.8947 16.2632V22.5789C31.8947 23.9742 33.0258 25.1053 34.4211 25.1053H40.7368C41.4345 25.1053 42 25.6708 42 26.3684V42.7895C42 44.1847 40.8689 45.3158 39.4737 45.3158H20.5263C19.1311 45.3158 18 44.1847 18 42.7895Z" fill="#F9F9F9"/>
<path d="M17.3684 17.5263V42.7895H18.6316V17.5263H17.3684ZM20.5263 45.9474H39.4737V44.6842H20.5263V45.9474ZM42.6316 42.7895V26.3684H41.3684V42.7895H42.6316ZM40.7368 24.4737H34.4211V25.7368H40.7368V24.4737ZM32.5263 22.5789V16.2632H31.2632V22.5789H32.5263ZM30.6316 14.3684H20.5263V15.6316H30.6316V14.3684ZM32.5263 16.2632C32.5263 15.2167 31.678 14.3684 30.6316 14.3684V15.6316C30.9804 15.6316 31.2632 15.9143 31.2632 16.2632H32.5263ZM34.4211 24.4737C33.3746 24.4737 32.5263 23.6254 32.5263 22.5789H31.2632C31.2632 24.323 32.677 25.7368 34.4211 25.7368V24.4737ZM42.6316 26.3684C42.6316 25.322 41.7833 24.4737 40.7368 24.4737V25.7368C41.0857 25.7368 41.3684 26.0196 41.3684 26.3684H42.6316ZM39.4737 45.9474C41.2177 45.9474 42.6316 44.5335 42.6316 42.7895H41.3684C41.3684 43.8359 40.5201 44.6842 39.4737 44.6842V45.9474ZM17.3684 42.7895C17.3684 44.5335 18.7823 45.9474 20.5263 45.9474V44.6842C19.4799 44.6842 18.6316 43.8359 18.6316 42.7895H17.3684ZM18.6316 17.5263C18.6316 16.4799 19.4799 15.6316 20.5263 15.6316V14.3684C18.7823 14.3684 17.3684 15.7823 17.3684 17.5263H18.6316Z" fill="#F9F9F9"/>
<path d="M42 25.1053H43.2632V24.582L42.8932 24.2121L42 25.1053ZM31.8947 15L32.7879 14.1068L32.418 13.7368H31.8947V15ZM16.7368 17.5263V42.7895H19.2632V17.5263H16.7368ZM20.5263 46.5789H39.4737V44.0526H20.5263V46.5789ZM43.2632 42.7895V25.1053H40.7368V42.7895H43.2632ZM42 23.8421H34.4211V26.3684H42V23.8421ZM33.1579 22.5789V15H30.6316V22.5789H33.1579ZM31.8947 13.7368H20.5263V16.2632H31.8947V13.7368ZM31.0015 15.8932L41.1068 25.9985L42.8932 24.2121L32.7879 14.1068L31.0015 15.8932ZM34.4211 23.8421C33.7234 23.8421 33.1579 23.2766 33.1579 22.5789H30.6316C30.6316 24.6718 32.3282 26.3684 34.4211 26.3684V23.8421ZM39.4737 46.5789C41.5666 46.5789 43.2632 44.8823 43.2632 42.7895H40.7368C40.7368 43.4871 40.1713 44.0526 39.4737 44.0526V46.5789ZM16.7368 42.7895C16.7368 44.8823 18.4334 46.5789 20.5263 46.5789V44.0526C19.8287 44.0526 19.2632 43.4871 19.2632 42.7895H16.7368ZM19.2632 17.5263C19.2632 16.8287 19.8287 16.2632 20.5263 16.2632V13.7368C18.4334 13.7368 16.7368 15.4334 16.7368 17.5263H19.2632Z" fill="#F9F9F9"/>
<path d="M25.2096 33.6856C24.7163 33.1923 23.9165 33.1923 23.4232 33.6856C22.9299 34.1789 22.9299 34.9787 23.4232 35.472L25.2096 33.6856ZM35.9464 32.3141C36.4397 31.8208 36.4397 31.021 35.9464 30.5277C35.4531 30.0344 34.6534 30.0344 34.1601 30.5277L35.9464 32.3141ZM27.2127 37.4751L26.3195 38.3683L27.2127 37.4751ZM23.4232 35.472L26.3195 38.3683L28.1059 36.5819L25.2096 33.6856L23.4232 35.472ZM29.8923 38.3683L35.9464 32.3141L34.1601 30.5277L28.1059 36.5819L29.8923 38.3683ZM26.3195 38.3683C27.3061 39.3549 28.9057 39.3549 29.8923 38.3683L28.1059 36.5819L28.1059 36.5819L26.3195 38.3683Z" fill="#97E11D"/>
</svg>
