<svg width="60" height="60" viewBox="0 0 60 60" fill="none" xmlns="http://www.w3.org/2000/svg">
<rect width="60" height="60" rx="14" fill="#97E11D"/>
<path d="M17 43.7755V27.164C17 26.4392 17.3211 25.7516 17.8769 25.2863L28.5912 16.3162C29.5009 15.5546 30.8257 15.5546 31.7354 16.3162L42.4496 25.2863C43.0054 25.7516 43.3265 26.4392 43.3265 27.164V43.7755C43.3265 44.4518 42.7783 45 42.102 45H37.2041C36.5278 45 35.9796 44.4518 35.9796 43.7755V34.5918C35.9796 33.2393 34.8831 32.1429 33.5306 32.1429H27.4082C26.0556 32.1429 24.9592 33.2393 24.9592 34.5918V43.7755C24.9592 44.4518 24.411 45 23.7347 45H18.2245C17.5482 45 17 44.4518 17 43.7755Z" fill="#F9F9F9" stroke="#F9F9F9" stroke-width="1.22449"/>
</svg>
